<?xml version="1.0" encoding="UTF-8" standalone="no"?>
<!-- Generator: Adobe Illustrator 19.0.0, SVG Export Plug-In . SVG Version: 6.00 Build 0)  -->

<svg
   xmlns:dc="http://purl.org/dc/elements/1.1/"
   xmlns:cc="http://creativecommons.org/ns#"
   xmlns:rdf="http://www.w3.org/1999/02/22-rdf-syntax-ns#"
   xmlns:svg="http://www.w3.org/2000/svg"
   xmlns="http://www.w3.org/2000/svg"
   xmlns:sodipodi="http://sodipodi.sourceforge.net/DTD/sodipodi-0.dtd"
   xmlns:inkscape="http://www.inkscape.org/namespaces/inkscape"
   version="1.1"
   id="Capa_1"
   x="0px"
   y="0px"
   viewBox="-155 201.5 283.5 439.4"
   style="enable-background:new -155 201.5 283.5 439.4;"
   xml:space="preserve"
   inkscape:version="0.91 r13725"
   sodipodi:docname="cuerpo humano.svg"><metadata
     id="metadata72"><rdf:RDF><cc:Work
         rdf:about=""><dc:format>image/svg+xml</dc:format><dc:type
           rdf:resource="http://purl.org/dc/dcmitype/StillImage" /></cc:Work></rdf:RDF></metadata><defs
     id="defs70" /><sodipodi:namedview
     pagecolor="#ffffff"
     bordercolor="#666666"
     borderopacity="1"
     objecttolerance="10"
     gridtolerance="10"
     guidetolerance="10"
     inkscape:pageopacity="0"
     inkscape:pageshadow="2"
     inkscape:window-width="1366"
     inkscape:window-height="705"
     id="namedview68"
     showgrid="false"
     inkscape:zoom="2.1483842"
     inkscape:cx="141.75"
     inkscape:cy="363.19279"
     inkscape:window-x="-8"
     inkscape:window-y="-8"
     inkscape:window-maximized="1"
     inkscape:current-layer="Capa_1" /><style
     type="text/css"
     id="style3">
	.st0{fill:#C93325;}
	.st1{fill:#B32F1F;}
	.st2{opacity:0.4;fill:#B4471F;enable-background:new    ;}
	.st3{opacity:0.4;fill:#B55B1F;enable-background:new    ;}
	.st4{opacity:0.4;fill:#BA841B;enable-background:new    ;}
	.st5{opacity:0.4;fill:#BB9318;enable-background:new    ;}
	.st6{fill:#FCC261;}
	.st7{fill:#FBC261;}
	.st8{fill:none;}
	.st9{font-family:'ArialMT';}
	.st10{font-size:8.5039px;}
</style><path
     id="XMLID_8_"
     class="st0"
     d="m -10.965466,258.09216 c 0,0 0.3,-10.2 -0.7,-11.8 0,0 -1.3,-5.2 -1,-6.6 0,0 -2.9,-0.3 -3.1,-5.7 0,0 -0.7,-9.1 2,-4.8 0,0 -3.6,-21.4 12.1999999,-21.9 0,0 14.6000001,-0.6 12.6000001,21.1 0,0 3,-1.4 1.9,5.7 0,0 -0.2,5.8 -2.9,5.4 0,0 -0.1000001,5.8 -1.2000001,6.9 0,0 -1.4,8.8 -0.2,10.9 1.2,2.1 9.9000001,10.5 13.8000001,10.6 0,0 18,-5.2 20.7,20.2 0,0 0.1,6.5 -0.7,11.2 0,0 -0.2,3.6 0.7,6.2 0,0 2.5,11.4 2.8,16.5 0,0 0.9,5.2 4,9.1 0,0 3.8,6.9 6.1,16.9 2.3,10 2.4,13.5 4.3,17.9 1.9,4.4 3.2,11.9 4.5,14.7 1.3,2.7 0.8,3.6 3.8,5.3 3,1.7 4.4,3.4 5.7,5.3 1.3,1.9 6.4,5.7 6.2,6.9 -0.2,1.2 -2.2,2.2 -3.4,1 -1.2,-1.2 -4.3,-2.9 -3.7,-1.6 0.5,1.3 6.8,15.9 5.4,17.6 0,0 0,0 -0.1,0.1 0,0 -1.5,0.3 -2.6,-2.4 -1.1,-2.7 -3.7,-6.8 -3.7,-6.8 l 1.6,7.9 c 0,0 2.4,5.8 1.1,6.6 0,0 -1.7,0.5 -2.5,-3 l -4.6,-11.2 c 0,0 -0.6,-0.5 -0.5,0.9 0.2,1.3 2.2,12.5 2.5,12.9 0.3,0.4 0.3,2.3 -0.6,2.7 0,0 -1.7,0.3 -2.1,-2.5 0,0 -3.8,-12.2 -3.7,-13 0,-0.8 -0.6,-0.3 -0.6,0 0,0.4 0.3,10.3 0,10.9 0,0 -0.1,0.8 -0.8,0.9 0,0 -1.4,-0.2 -1.6,-2.1 0,0 -0.5,-5.9 -0.4,-7.7 0.1,-1.8 -0.3,-3.4 -0.6,-4.4 -0.3,-1 -2.8,-7.1 -3.3,-9.9 -0.5,-2.8 -0.9,-3.6 -1,-6 -0.1,-2.4 -1,-6 -1.4,-7.5 0,0 -7.5,-17 -10.3,-22.5 0,0 -9.4,-17.7 -8.8,-25.1 0,0 -6,-18.8 -6.6,-19.9 0,0 -6,19.9 -3.8,33.2 0,0 1.9,13.7 1.9,18.4 0,4.8 5.3,27.3 5.6,36.9 0.3,9.6 0.9,29.9 -1.9,43.2 -2.8,13.3 -1.3,20.7 -1.3,26.2 0,5.5 1.9,18.8 2.2,25.5 0.3,6.6 -0.6,29.9 -3.1,40.6 -2.5,10.7 -1.6,17.7 -0.9,21.8 0.6,4.1 4.4,11.1 7.5,13.7 3.1,2.6 14.7,12.5 2.8,14.4 0,0 -2.5,2.6 -6.6,-0.4 0,0 -5.3,-1.8 -6.3,-7.4 0,0 -3.4,-2.2 -5.6,-2.6 -2.2,-0.4 -5.6,-5.5 -3.1,-8.9 0,0 1.6,-3.7 0.6,-6.6 -0.9,-3 0,-7.7 0.3,-10 0.3,-2.2 -0.6,-8.9 -1.3,-14.4 -0.6,-5.5 -6.3000001,-24 -4.1,-35 2.2,-11.1 0.9,-11.4 0,-19.9 -0.9,-8.5 -4.4000001,-23.2 -4.4000001,-30.6 0,-7.4 -7.8,-32.8 -6.6,-46.5 l -2.2,0 c 0,0 -3.4,36.9 -8.1999999,59.4 0,0 -0.6,16.6 -3.8,21.8 0,0 0.3,6.6 0.9,12.2 0.6,5.5 1.6,18.4 -1.3,25.8 -2.8,7.4 -4.1,26.6 -4.1,31.4 0,4.8 -0.9,7 0.3,10.7 1.3,3.7 3.1,7.7 0,9.6 -3.1,1.8 -8.5,3.3 -9.1,4.8 -0.6,1.5 -9.1,12.9 -13.8,5.9 0,0 -8.8,-2.2 -2.8,-7.7 0,0 6.3,-3.3 9.4,-7.7 3.1,-4.4 4.7,-8.5 5.3,-9.6 0.6,-1.1 0.9,-9.6 0.6,-14.8 -0.3,-5.2 -5,-38.4 -4.1,-45 0.9,-6.6 2.5,-18.1 3.4,-24 0.9,-5.9 -0.3,-14.8 -0.3,-18.1 0,-3.3 -6,-40.2 -4.4,-53.5 1.6,-13.3 2.8,-29.9 5,-36.9 2.2,-7 3.1,-23.6 3.4,-28.8 0.3,-5.2 -3.8,-25.1 -4.4,-26.9 0,0 -5,15.1 -6.6,20.7 -1.6,5.5 -0.3,8.9 -4.1,15.9 -3.8,7 -8.8,17 -12.2,25.5 -3.5,8.5 -3.8,15.1 -5.3,21.8 -1.6,6.6 -3.5,8.9 -3.5,8.9 l -0.5,10.3 c 0,0 0,2.1 -1.3,2.4 0,0 -1.7,-0.4 -1.1,-2.4 0,0 0.4,-8.6 0.1,-9.7 0,0 -0.3,-0.5 -0.7,0.2 -0.4,0.7 -3.5,13.3 -4,14.2 -0.6,0.9 -0.9,1.4 -1.6,1.3 0,0 -1.6,-0.7 -0.8,-2.6 0,0 1.2,-5.9 1.8,-7.1 0.6,-1.2 1.4,-6.2 1.2,-6.7 -0.2,-0.4 -0.5,-0.5 -0.8,-0.2 -0.3,0.3 -3.1,8.6 -3.5,9.4 -0.4,0.8 -1.8,6 -3.7,5.5 0,0 -1.9,-0.8 -0.4,-3.8 0,0 1.6,-5.3 2.1,-6.1 0.5,-0.7 2.1,-6 2,-6.7 -0.1,-0.7 -0.6,0.4 -0.8,0.7 -0.2,0.2 -3.7,7.2 -4.2,8.2 -0.6,1 -1.6,2 -2.4,1.7 0,0 -1.3,-0.2 -0.1,-3.3 0,0 2.7,-5.6 3.5,-8 0.8,-2.4 1.9,-7.6 2.2,-8.2 0,0 -1.6,1.4 -2.3,2.2 -0.8,0.8 -3.5,1.8 -4.5,1.2 -1,-0.6 -1.5,-1.2 -0.5,-1.9 1,-0.7 2.7,-2.5 3.3,-3.1 0.6,-0.6 3.7,-3.5 4.2,-4.5 0.5,-1 4,-4.2 4.7,-4.8 0.6,-0.7 3.1,-4.8 3.8,-6.8 0.7,-2 5.2,-14.9 5.9,-18.4 0.7,-3.5 2.5,-15.7 3.3,-18.6 0.7,-2.9 3,-7.2 4.2,-9.6 1.3,-2.3 4.5,-8.3 4.8,-11.5 0.3,-3.2 1.5,-11.7 2.1,-13.6 0.6,-1.9 0.6,-7.2 0.4,-10 -0.1,-2.8 -2.3,-14.6 3.7,-21.7 6.1,-7.2 12,-8.2 15.6,-7.4 0.3,0.1 8,-1.9 15.1,-9.5 z"
     inkscape:connector-curvature="0"
     style="fill:#c93325" /><path
     id="XMLID_7_"
     class="st1"
     d="m 74.234534,391.19216 c -1.3,-1.9 -2.8,-3.6 -5.7,-5.3 -3,-1.7 -2.4,-2.6 -3.8,-5.3 -1.3,-2.7 -2.6,-10.3 -4.5,-14.7 -1.9,-4.4 -2,-7.9 -4.3,-17.9 -2.3,-10 -6.1,-16.9 -6.1,-16.9 -3.1,-3.9 -4,-9.1 -4,-9.1 -0.2,-5.1 -2.8,-16.5 -2.8,-16.5 -0.9,-2.6 -0.7,-6.2 -0.7,-6.2 0.8,-4.7 0.7,-11.2 0.7,-11.2 -2.8,-25.4 -20.7,-20.2 -20.7,-20.2 -3.9,-0.1 -12.6000001,-8.6 -13.8000001,-10.6 -1.2,-2.1 0.2,-10.9 0.2,-10.9 1.1,-1 1.2,-6.9 1.2,-6.9 2.6000001,0.4 2.9000001,-5.4 2.9000001,-5.4 1.1,-7.1 -1.9,-5.7 -1.9,-5.7 1.7,-18.3 -8.3000001,-20.8 -11.6000001,-21.1 l 0,198.5 0.5,0 c -1.3,13.7 6.6,39.1 6.6,46.5 0,7.4 3.4,22.1 4.4000001,30.6 0.9,8.5 2.2,8.9 0,19.9 -2.2000001,11.1 3.5,29.5 4.1,35 0.6,5.5 1.6,12.2 1.3,14.4 -0.3,2.2 -1.3,7 -0.3,10 0.9,3 -0.6,6.6 -0.6,6.6 -2.5,3.3 0.9,8.5 3.1,8.9 2.2,0.4 5.6,2.6 5.6,2.6 0.9,5.5 6.3,7.4 6.3,7.4 4.1,3 6.6,0.4 6.6,0.4 11.9,-1.8 0.3,-11.8 -2.8,-14.4 -3.1,-2.6 -6.9,-9.6 -7.5,-13.7 -0.6,-4.1 -1.6,-11.1 0.9,-21.8 2.5,-10.7 3.4,-33.9 3.1,-40.6 -0.3,-6.6 -2.2,-19.9 -2.2,-25.5 0,-5.5 -1.6,-12.9 1.3,-26.2 2.8,-13.3 2.2,-33.6 1.9,-43.2 -0.3,-9.6 -5.6,-32.1 -5.6,-36.9 0,-4.8 -1.9,-18.4 -1.9,-18.4 -2.2,-13.3 3.8,-33.2 3.8,-33.2 0.6,1.1 6.6,19.9 6.6,19.9 -0.6,7.4 8.8,25.1 8.8,25.1 2.8,5.5 10.3,22.5 10.3,22.5 0.3,1.5 1.2,5.1 1.4,7.5 0.1,2.4 0.6,3.2 1,6 0.5,2.8 3,8.9 3.3,9.9 0.3,1 0.7,2.7 0.6,4.4 -0.1,1.8 0.4,7.7 0.4,7.7 0.2,1.9 1.6,2.1 1.6,2.1 0.8,-0.1 0.8,-0.9 0.8,-0.9 0.4,-0.7 0,-10.6 0,-10.9 0,-0.4 0.6,-0.9 0.6,0 0,0.8 3.7,13 3.7,13 0.4,2.8 2.1,2.5 2.1,2.5 0.9,-0.4 0.8,-2.2 0.6,-2.7 -0.3,-0.5 -2.3,-11.6 -2.5,-12.9 -0.2,-1.3 0.5,-0.9 0.5,-0.9 l 4.6,11.2 c 0.8,3.5 2.5,3 2.5,3 1.3,-0.8 -1.1,-6.6 -1.1,-6.6 l -1.6,-7.9 c 0,0 2.6,4.1 3.7,6.8 1.1,2.7 2.6,2.4 2.6,2.4 0,0 0,0 0.1,-0.1 1.4,-1.7 -4.8,-16.3 -5.4,-17.6 -0.6,-1.3 2.5,0.4 3.7,1.6 1.2,1.2 3.2,0.1 3.4,-1 0.4,-1.4 -4.6,-5.2 -6,-7.1 z"
     inkscape:connector-curvature="0"
     style="fill:#b32f1f" /><rect
     id="XMLID_5_"
     x="-129.96547"
     y="256.59216"
     class="st2"
     width="129.39999"
     height="43.900002"
     style="opacity:0.4;fill:#b4471f;enable-background:new" /><rect
     id="XMLID_4_"
     x="-129.96547"
     y="305.89218"
     class="st3"
     width="129.39999"
     height="43.900002"
     style="opacity:0.4;fill:#b55b1f;enable-background:new" /><rect
     id="XMLID_3_"
     x="-129.96547"
     y="355.29218"
     class="st4"
     width="129.39999"
     height="43.900002"
     style="opacity:0.4;fill:#ba841b;enable-background:new" /><rect
     id="XMLID_2_"
     x="-129.96547"
     y="404.19217"
     class="st5"
     width="129.39999"
     height="43.900002"
     style="opacity:0.4;fill:#bb9318;enable-background:new" /><ellipse
     id="XMLID_9_"
     class="st1"
     cx="-110.56547"
     cy="278.09216"
     rx="19.5"
     ry="20.200001"
     style="fill:#b32f1f" /><ellipse
     id="XMLID_22_"
     class="st1"
     cx="-110.56547"
     cy="327.89218"
     rx="19.5"
     ry="20.200001"
     style="fill:#b32f1f" /><ellipse
     id="XMLID_23_"
     class="st1"
     cx="-110.56547"
     cy="377.29218"
     rx="19.5"
     ry="20.200001"
     style="fill:#b32f1f" /><ellipse
     id="XMLID_24_"
     class="st1"
     cx="-110.56547"
     cy="426.09216"
     rx="19.5"
     ry="20.200001"
     style="fill:#b32f1f" /><g
     id="XMLID_10_"
     transform="translate(-0.4654661,-22.807839)"><path
       id="XMLID_21_"
       class="st6"
       d="m -118.7,305.3 c 0,0 -0.6,-0.4 -0.5,-0.9 0.1,-0.5 -0.4,-1.6 -0.6,-2 -0.2,-0.3 -2.4,-5.9 2.5,-8.3 0,0 0.8,-0.4 1,-0.4 0,0 2.2,-3.1 2.4,-4.7 0,0 0.1,-0.7 -0.1,-1 0,0 -0.3,-2.2 1.2,-2.3 0,0 1.3,-0.3 1.6,1.3 0,0 -0.1,0.9 0.2,0.8 0,0 2.1,-1.2 2.6,-0.4 0,0 0,-1.3 0.2,-1.4 l 1,-0.3 c 0,0 0.3,0.5 0.3,0.9 0,0 0.9,-0.4 1,-0.3 l 0.4,-1.2 c 0,0 0.9,-0.3 1.1,-0.1 0,0 0,1.1 -0.1,1.3 0,0 0.5,0 0.6,0.1 0,0 1,-1.3 1.2,-1.3 0,0 0.8,0.2 0.9,0.4 0,0 -0.4,1.1 -0.6,1.3 0,0 0.8,0.9 -0.2,1.7 0,0 0.1,1.1 -1.7,1.2 0,0 -1.6,0.1 -2,0.7 0,0 5.7,0.6 6.3,1.6 0,0 0.7,1.9 -1.2,2.6 l -1.9,0 c 0,0 0.9,1.1 1.5,1.2 0,0 2.1,0.4 2.1,1.1 0,0 -0.1,1.3 -2.1,0.3 l 1.9,1.4 c 0,0 -0.3,1 -1.1,0.7 0,0 0,2.6 -0.9,2.4 0,0 2,3.4 0.5,7.6 0,0 -1.2,3.6 -4.2,6.2 0,0 -0.4,0.4 -0.7,0.8 -0.3,0.4 -0.6,0.8 -1.2,0.9 -0.5,0.2 -1,0.3 -1.9,-0.1 -1,-0.4 -2.8,-1.6 -3.3,-1.8 -0.5,-0.3 -2.5,-1.6 -3.5,-3.1 -0.9,-1.3 -2.8,-4.6 -2.7,-6.9 z"
       inkscape:connector-curvature="0"
       style="fill:#fcc261" /><path
       id="XMLID_20_"
       class="st6"
       d="m -110.3,313.5 c -0.5,-0.5 -0.6,-0.9 -0.5,-2.1 0.1,-0.6 0,-0.6 -0.3,-0.8 -0.2,-0.2 -0.5,-0.4 -0.8,-1.1 -0.3,-0.8 -0.5,-1.3 -0.5,-1.8 0,-0.5 0.1,-1 0.4,-1.6 0.2,-0.4 0.3,-0.7 0.5,-1.1 0.4,-0.8 0.8,-1.6 1.1,-2.4 0.4,-1.2 3,-3.1 3.1,-3.2 l 0.2,0.3 c 0,0 -2.7,1.9 -3,3 -0.3,0.8 -0.7,1.7 -1.1,2.5 -0.2,0.3 -0.4,0.7 -0.5,1.1 -0.5,1.1 -0.5,1.8 0.1,3.1 0.3,0.6 0.5,0.8 0.7,1 0.3,0.2 0.5,0.4 0.4,1.1 -0.1,1.2 0,1.4 0.4,1.8 l -0.2,0.2 z"
       inkscape:connector-curvature="0"
       style="fill:#fcc261" /><path
       id="XMLID_19_"
       class="st6"
       d="m -110,306.8 -0.3,0 c 0,-0.1 0.1,-0.2 0.1,-0.3 0.1,-0.1 0.1,-0.1 0.1,-0.2 0,-0.1 -0.1,-0.4 -0.3,-0.7 -0.7,-1.2 -0.2,-2.4 -0.2,-2.5 l 0.3,0.1 -0.1,-0.1 0.1,0.1 c 0,0 -0.5,1.2 0.2,2.2 0.4,0.8 0.4,1.1 0.1,1.4 l 0,0 z"
       inkscape:connector-curvature="0"
       style="fill:#fcc261" /><path
       id="XMLID_18_"
       class="st6"
       d="m -109.7,310.2 c -0.1,-0.6 -0.3,-0.8 -1,-1.4 -0.1,-0.1 -0.3,-0.3 -0.5,-0.4 -1.1,-1 -0.5,-3 -0.5,-3.1 l 0.3,0.1 c 0,0 -0.6,1.8 0.4,2.7 0.2,0.2 0.3,0.3 0.5,0.4 0.7,0.6 0.9,0.8 1.1,1.6 l -0.3,0.1 z"
       inkscape:connector-curvature="0"
       style="fill:#fcc261" /><path
       id="XMLID_17_"
       class="st6"
       d="m -115.3,309.6 c -0.3,-0.7 -0.3,-1 0.2,-2.1 0.2,-0.5 0.2,-0.6 0,-0.9 -0.2,-0.2 -0.4,-0.6 -0.4,-1.3 -0.1,-0.8 -0.1,-1.4 0,-1.9 0.1,-0.5 0.4,-0.9 0.8,-1.4 0.3,-0.3 0.5,-0.6 0.8,-0.8 0.6,-0.6 1.2,-1.2 1.7,-1.9 0.7,-1 3.8,-1.9 3.9,-2 l 0.1,0.3 c 0,0 -3.1,0.9 -3.8,1.9 -0.5,0.7 -1.1,1.3 -1.8,2 -0.3,0.3 -0.5,0.5 -0.8,0.8 -0.8,0.9 -1,1.5 -0.8,3 0.1,0.6 0.3,0.9 0.4,1.2 0.2,0.3 0.3,0.6 0,1.2 -0.5,1.1 -0.4,1.3 -0.3,1.9 l 0,0 0,0 z"
       inkscape:connector-curvature="0"
       style="fill:#fcc261" /><path
       id="XMLID_16_"
       class="st6"
       d="m -113.6,303.8 -0.3,-0.2 c 0.1,-0.1 0.2,-0.2 0.2,-0.2 0.1,0 0.1,0 0.1,-0.1 0,-0.1 0,-0.4 -0.1,-0.8 -0.3,-1.4 0.6,-2.3 0.7,-2.4 l 0.2,0.2 -0.1,-0.1 0.1,0.1 c 0,0 -0.8,0.9 -0.6,2.1 0.3,1 0.2,1.2 -0.2,1.4 0.1,0 0,0 0,0 z"
       inkscape:connector-curvature="0"
       style="fill:#fcc261" /><path
       id="XMLID_15_"
       class="st6"
       d="m -113.1,307 -0.3,0 c 0,-0.7 -0.2,-0.8 -0.7,-1.6 -0.1,-0.1 -0.2,-0.3 -0.4,-0.5 -0.9,-1.2 0,-3 0.1,-3.1 l 0.3,0.2 -0.1,-0.1 0.1,0.1 c 0,0 -0.9,1.7 -0.1,2.8 0.1,0.2 0.3,0.4 0.4,0.5 0.4,0.7 0.7,0.9 0.7,1.7 z"
       inkscape:connector-curvature="0"
       style="fill:#fcc261" /><path
       id="XMLID_14_"
       class="st6"
       d="m -107.1,308.8 -0.3,-0.1 c 0.2,-0.4 0.3,-0.5 0.6,-0.9 0.2,-0.2 0.4,-0.4 0.7,-0.8 0.6,-0.7 0.6,-1.1 0.6,-1.9 0,-0.3 0,-0.5 0,-0.9 0,-1.6 1.8,-3.1 1.9,-3.1 l 0.2,0.3 c 0,0 -1.8,1.5 -1.8,2.9 0,0.3 0,0.6 0,0.9 0,0.8 0.1,1.3 -0.6,2.2 -0.3,0.4 -0.6,0.6 -0.7,0.8 -0.4,0.2 -0.5,0.3 -0.6,0.6 z"
       inkscape:connector-curvature="0"
       style="fill:#fcc261" /><path
       id="XMLID_13_"
       class="st6"
       d="m -104,307.9 -0.3,0 c 0,-0.1 0,-0.2 0.1,-0.3 0.1,-0.3 0.1,-0.4 -0.6,-1.3 -1,-1.2 -0.7,-2.3 -0.7,-2.4 l 0.3,0.1 c 0,0 -0.2,1.1 0.6,2.1 0.7,0.9 0.8,1.1 0.6,1.5 0,0.1 0,0.2 0,0.3 z"
       inkscape:connector-curvature="0"
       style="fill:#fcc261" /><path
       id="XMLID_12_"
       class="st6"
       d="m -108.5,308.8 c 0,-0.6 0.2,-1 0.5,-1.4 0.1,-0.2 0.2,-0.4 0.3,-0.6 0.2,-0.4 0.5,-0.6 0.8,-0.8 0.3,-0.2 0.5,-0.3 0.7,-0.7 0.3,-0.8 0.9,-2 0.9,-2 l 0.3,0.1 c 0,0 -0.6,1.2 -0.9,2 -0.2,0.5 -0.5,0.7 -0.8,0.8 -0.3,0.2 -0.5,0.3 -0.7,0.7 -0.1,0.2 -0.2,0.4 -0.3,0.6 -0.2,0.4 -0.4,0.8 -0.4,1.3 l -0.4,0 z"
       inkscape:connector-curvature="0"
       style="fill:#fcc261" /><path
       id="XMLID_11_"
       class="st6"
       d="m -114.5,304.8 c 0,0 0.6,1.3 0.4,2 -0.3,0.8 -0.6,1.5 -0.3,2.3"
       inkscape:connector-curvature="0"
       style="fill:#fcc261" /></g><path
     id="XMLID_6_"
     class="st6"
     d="m -98.465466,323.79216 c -2.400004,-7.1 -7.200004,-8 -7.200004,-8 -1,-0.5 -1.1,-0.5 -2.2,0.2 -1.2,0.7 -0.8,2.7 -0.8,3.4 0,0.2 0,0.6 0,1.1 -0.8,-0.2 -1.4,-0.8 -1.8,-1.3 0,-2.6 0.3,-7.1 0.3,-7.1 l -1.7,0 c 0,0 0.3,4.2 0.2,6.9 -0.4,0.5 -1,0.9 -1.6,1.2 0,-0.4 0,-0.6 0,-0.8 0.1,-0.6 0.4,-2.7 -0.8,-3.4 -1.2,-0.7 -1.3,-0.6 -2.2,-0.2 0,0 -4.8,0.9 -7.2,8 -2.4,7.1 -2.1,11.3 0.3,12.7 2.4,1.4 7.1,0.8 8.8,-0.2 1.8,-1.1 1.2,-3.2 1.2,-4 -0.1,-0.8 0.2,-2.9 0.3,-3.5 0.1,-0.4 0.1,-2.6 0,-4.2 0.8,-1 1.7,-0.9 1.7,-0.9 1,0 1.7,0.7 2.1,1.2 0,1.6 0,3.5 0.1,4 0.2,0.7 0.4,2.7 0.3,3.5 -0.1,0.8 -0.6,3 1.2,4 1.8,1.1 6.4,1.6 8.800004,0.2 2.3,-1.5 2.6,-5.8 0.2,-12.8 z"
     inkscape:connector-curvature="0"
     style="fill:#fcc261" /><g
     id="XMLID_1_"
     transform="translate(-0.4654661,-22.807839)"><g
       id="XMLID_25_"><path
         id="XMLID_29_"
         class="st6"
         d="m -115.1,409.5 c 0.3,0.4 0.7,0.6 1,0.5 0.3,-0.1 0.6,-0.5 0.7,-1.2 -0.6,0.3 -1.2,0.5 -1.7,0.7 z"
         inkscape:connector-curvature="0"
         style="fill:#fcc261" /><path
         id="XMLID_28_"
         class="st6"
         d="m -99.1,398.6 c 0.2,-0.3 0.3,-0.5 0.5,-0.8 0.9,-1.6 1.8,-3.2 1.5,-4.1 -0.4,-1 -2.5,-1.6 -6.3,-1.6 l -0.1,0 c -1,1.3 -1.3,4.1 -1.4,5.6 0.2,1.7 0,3.5 -0.5,5.4 1.2,-0.4 4.5,-1.2 6.3,-4.5 z"
         inkscape:connector-curvature="0"
         style="fill:#fcc261" /><path
         id="XMLID_27_"
         class="st6"
         d="m -107,392.2 c -0.1,0 -0.1,0 -0.2,0 0.8,1.1 1.3,2.2 1.7,3.3 0.2,-1.3 0.6,-2.4 1,-3.4 -0.7,0 -1.6,0.1 -2.5,0.1 z"
         inkscape:connector-curvature="0"
         style="fill:#fcc261" /><path
         id="XMLID_26_"
         class="st6"
         d="m -106.4,403.2 c 0.6,-1.8 0.8,-3.5 0.7,-5.2 0,-0.1 0,-0.2 0,-0.2 0,0 0,0 0,-0.1 -0.3,-1.9 -1.1,-3.7 -2.4,-5.5 -0.1,0 -0.1,0 -0.2,0 -0.9,0 -1.9,0 -2.8,-0.1 -0.9,0 -1.8,-0.1 -2.7,-0.1 -2.7,0 -5.4,0.4 -6.6,3 -1.8,3.7 -1.4,7.5 -1.1,10.8 0.1,0.7 0.1,1.4 0.2,2.1 0.2,2.4 0.5,4 1.3,4 0.7,0 1.7,-0.9 3.1,-2.5 l 0.1,-0.1 c 0.1,-0.1 8.5,-3.4 10.4,-6.1 z"
         inkscape:connector-curvature="0"
         style="fill:#fcc261" /></g></g><g
     id="XMLID_30_"
     transform="translate(-0.4654661,-22.807839)"><g
       id="XMLID_31_"><g
         id="XMLID_32_"><path
           id="XMLID_40_"
           class="st7"
           d="m -114,447.3 c -0.4,0.4 -0.9,0.7 -1.3,0.9 0.4,0.2 0.8,0.4 1.3,0.8 1,-0.5 2,-0.8 2.6,-1 -0.1,-0.4 -0.2,-0.8 -0.3,-1 -0.8,0.1 -1.6,0.3 -2.3,0.3 z"
           inkscape:connector-curvature="0"
           style="fill:#fbc261" /><path
           id="XMLID_38_"
           class="st7"
           d="m -114.8,457.5 c -0.5,1.5 -2.1,2.6 -4.1,2.6 l 0,0 c -2.8,0 -5.3,-1.9 -6.7,-5 -2.4,-5.5 0.4,-10.6 0.8,-11.3 0.2,-0.2 0.7,-0.6 2,-0.3 0.2,0.1 0.5,-0.1 0.5,-0.4 0.1,-0.3 -0.1,-0.5 -0.3,-0.6 -0.7,-0.2 -1.2,-0.2 -1.6,-0.1 1.3,-2.9 4,-4.2 6.4,-4.2 2.2,0 4,1.1 4.5,2.8 0.4,1.6 0.3,3 -0.3,4.2 -0.8,1.4 -2.3,2 -2.7,2.2 -0.6,-0.2 -1.9,-0.9 -2.3,-1.9 -0.1,-0.2 -0.4,-0.3 -0.6,-0.2 -0.2,0.1 -0.3,0.4 -0.2,0.6 0.5,1.3 1.8,2 2.6,2.3 -0.2,0.7 0,1.4 0.2,1.9 0,0 -0.5,1.8 -2.3,2.6 -0.2,0.1 -0.3,0.4 -0.2,0.6 0.1,0.2 0.2,0.3 0.4,0.3 0.1,0 0.1,0 0.2,0 1.4,-0.6 2.1,-1.8 2.5,-2.5 0.4,0.8 2.2,3.4 1.2,6.4 z"
           inkscape:connector-curvature="0"
           style="fill:#fbc261" /><path
           id="XMLID_37_"
           class="st7"
           d="m -114.8,449.6 c -0.5,-0.3 -0.9,-0.6 -1.3,-0.7 -0.1,0.7 0.3,1.4 0.4,1.5 0.1,0.1 0.5,0.6 0.8,1.2 0.9,1 1.5,2.4 1.8,3.4 l 1.4,0 c -0.4,-3 -1.4,-4.3 -3.1,-5.4 z"
           inkscape:connector-curvature="0"
           style="fill:#fbc261" /><path
           id="XMLID_36_"
           class="st7"
           d="m -118.7,453.7 c -0.1,0 -0.1,0 -0.2,0 -0.2,0 -0.3,-0.1 -0.4,-0.3 -0.1,-0.2 0,-0.5 0.2,-0.6 1.7,-0.8 2.2,-2.5 2.3,-2.6 -0.2,-0.5 -0.4,-1.2 -0.2,-1.9 -0.7,-0.3 -2.1,-1 -2.6,-2.3 -0.1,-0.2 0,-0.5 0.2,-0.6 0.2,-0.1 0.5,0 0.6,0.2 0.4,1 1.7,1.7 2.3,1.9 0.4,-0.1 1.9,-0.7 2.7,-2.2 0.6,-1.1 0.7,-2.5 0.3,-4.2 -0.5,-1.7 -2.2,-2.8 -4.5,-2.8 -2.4,0 -5.1,1.3 -6.4,4.2 0.4,-0.1 1,-0.1 1.6,0.1 0.2,0.1 0.4,0.3 0.3,0.6 -0.1,0.3 -0.3,0.4 -0.5,0.4 -1.2,-0.3 -1.7,0 -2,0.3 -0.4,0.7 -3.2,5.8 -0.8,11.3 1.4,3.1 3.8,5 6.7,5 l 0,0 c 2,0 3.6,-1.1 4.1,-2.6 0.9,-3 -0.9,-5.6 -1.5,-6.3 -0.1,0.6 -0.8,1.8 -2.2,2.4 z"
           inkscape:connector-curvature="0"
           style="fill:#fbc261" /><path
           id="XMLID_35_"
           class="st7"
           d="m -105.3,448.2 c -0.4,-0.2 -0.8,-0.5 -1.3,-0.9 -0.8,-0.1 -1.5,-0.2 -2.3,-0.4 -0.1,0.3 -0.2,0.6 -0.3,1 0.6,0.2 1.6,0.5 2.6,1 0.4,-0.3 0.8,-0.6 1.3,-0.7 z"
           inkscape:connector-curvature="0"
           style="fill:#fbc261" /><path
           id="XMLID_34_"
           class="st7"
           d="m -105,450.4 c 0.1,-0.1 0.5,-0.7 0.4,-1.5 -1.5,0.6 -3.8,1.1 -4.4,6.1 l 1.4,0 c 0.3,-1 0.8,-2.4 1.7,-3.3 0.5,-0.7 0.8,-1.2 0.9,-1.3 z"
           inkscape:connector-curvature="0"
           style="fill:#fbc261" /><path
           id="XMLID_33_"
           class="st7"
           d="m -96,443.8 c -0.2,-0.2 -0.7,-0.6 -2,-0.3 -0.2,0.1 -0.5,-0.1 -0.5,-0.4 -0.1,-0.3 0.1,-0.5 0.3,-0.6 0.7,-0.2 1.2,-0.2 1.6,-0.1 -1.3,-2.9 -4,-4.2 -6.4,-4.2 -2.2,0 -4,1.1 -4.5,2.8 -0.4,1.6 -0.3,3 0.3,4.2 0.8,1.4 2.3,2 2.7,2.2 0.4,-0.2 1.9,-0.8 2.3,-1.9 0.1,-0.2 0.4,-0.3 0.6,-0.2 0.2,0.1 0.3,0.4 0.2,0.6 -0.5,1.3 -1.8,2 -2.6,2.3 0.2,0.7 0,1.4 -0.2,1.9 l 0,0 c 0,0 0.5,1.8 2.3,2.6 0.2,0.1 0.3,0.4 0.2,0.6 -0.1,0.2 -0.2,0.3 -0.4,0.3 -0.1,0 -0.1,0 -0.2,0 -1.4,-0.7 -2.1,-1.8 -2.5,-2.5 -0.6,0.7 -2.4,3.3 -1.5,6.2 0.5,1.5 2.1,2.5 4.1,2.5 2.8,0 5.3,-1.8 6.7,-4.9 2.7,-5.4 -0.1,-10.4 -0.5,-11.1 z"
           inkscape:connector-curvature="0"
           style="fill:#fbc261" /></g></g></g><rect
     x="-86.965469"
     y="256.59216"
     class="st8"
     width="78"
     height="43.900002"
     id="rect44"
     style="fill:none" /><text
     class="st9 st10"
     id="text46"
     x="-86.965469"
     y="272.83826"
     style="font-size:8.50389957px;font-family:ArialMT"><tspan
       style="font-style:normal;font-variant:normal;font-weight:normal;font-stretch:normal;font-family:Arial;-inkscape-font-specification:Arial"
       id="tspan4208">Salud privada: 11</tspan></text>
<text
     class="st9 st10"
     id="text48"
     x="-86.965469"
     y="283.03827"
     style="font-size:8.50389957px;font-family:ArialMT"><tspan
       style="font-style:normal;font-variant:normal;font-weight:normal;font-stretch:normal;font-family:Arial;-inkscape-font-specification:Arial"
       id="tspan4210">Salud pública: 20</tspan></text>
<rect
     x="-86.965469"
     y="305.89218"
     class="st8"
     width="74"
     height="43.900002"
     id="rect50"
     style="fill:none" /><text
     class="st9 st10"
     id="text52"
     x="-86.965469"
     y="322.13855"
     style="font-size:8.50389957px;font-family:ArialMT"><tspan
       style="font-style:normal;font-variant:normal;font-weight:normal;font-stretch:normal;font-family:Arial;-inkscape-font-specification:Arial"
       id="tspan4204">Salud privada: 12</tspan></text>
<text
     class="st9 st10"
     id="text54"
     x="-86.965469"
     y="332.33856"
     style="font-size:8.50389957px;font-family:ArialMT"><tspan
       style="font-style:normal;font-variant:normal;font-weight:normal;font-stretch:normal;font-family:Arial;-inkscape-font-specification:Arial"
       id="tspan4206">Salud pública: 19</tspan></text>
<rect
     x="-86.965469"
     y="355.29218"
     class="st8"
     width="74"
     height="43.900002"
     id="rect56"
     style="fill:none" /><text
     class="st9 st10"
     id="text58"
     x="-86.965469"
     y="371.58856"
     style="font-size:8.50389957px;font-family:ArialMT"><tspan
       style="font-style:normal;font-variant:normal;font-weight:normal;font-stretch:normal;font-family:Arial;-inkscape-font-specification:Arial"
       id="tspan4202">Salud privada: 23</tspan></text>
<text
     class="st9 st10"
     id="text60"
     x="-86.965469"
     y="381.78857"
     style="font-size:8.50389957px;font-family:ArialMT"><tspan
       style="font-style:normal;font-variant:normal;font-weight:normal;font-stretch:normal;font-family:Arial;-inkscape-font-specification:Arial"
       id="tspan4200">Salud pública: 46</tspan></text>
<rect
     x="-86.965469"
     y="404.49216"
     class="st8"
     width="74"
     height="43.900002"
     id="rect62"
     style="fill:none" /><text
     class="st9 st10"
     id="text64"
     x="-86.965469"
     y="420.73856"
     style="font-size:8.50389957px;font-family:ArialMT"><tspan
       style="font-style:normal;font-variant:normal;font-weight:normal;font-stretch:normal;font-family:Arial;-inkscape-font-specification:Arial"
       id="tspan4212">Salud privada: 29</tspan></text>
<text
     class="st9 st10"
     id="text66"
     x="-86.965469"
     y="430.93857"
     style="font-size:8.50389957px;font-family:ArialMT"><tspan
       style="font-style:normal;font-variant:normal;font-weight:normal;font-stretch:normal;font-family:Arial;-inkscape-font-specification:Arial"
       id="tspan4214">Salud pública: 146</tspan></text>
</svg>