<?xml version="1.0" encoding="UTF-8" standalone="no"?>
<!-- Generator: Adobe Illustrator 19.0.0, SVG Export Plug-In . SVG Version: 6.00 Build 0)  -->

<svg
   xmlns:dc="http://purl.org/dc/elements/1.1/"
   xmlns:cc="http://creativecommons.org/ns#"
   xmlns:rdf="http://www.w3.org/1999/02/22-rdf-syntax-ns#"
   xmlns:svg="http://www.w3.org/2000/svg"
   xmlns="http://www.w3.org/2000/svg"
   xmlns:sodipodi="http://sodipodi.sourceforge.net/DTD/sodipodi-0.dtd"
   xmlns:inkscape="http://www.inkscape.org/namespaces/inkscape"
   version="1.1"
   id="Capa_1"
   x="0px"
   y="0px"
   viewBox="0 0 283.5 439.4"
   style="enable-background:new 0 0 283.5 439.4;"
   xml:space="preserve"
   inkscape:version="0.91 r13725"
   sodipodi:docname="cuerpo humano matias.svg"><metadata
     id="metadata48"><rdf:RDF><cc:Work
         rdf:about=""><dc:format>image/svg+xml</dc:format><dc:type
           rdf:resource="http://purl.org/dc/dcmitype/StillImage" /><dc:title /></cc:Work></rdf:RDF></metadata><defs
     id="defs46" /><sodipodi:namedview
     pagecolor="#ffffff"
     bordercolor="#666666"
     borderopacity="1"
     objecttolerance="10"
     gridtolerance="10"
     guidetolerance="10"
     inkscape:pageopacity="0"
     inkscape:pageshadow="2"
     inkscape:window-width="1366"
     inkscape:window-height="705"
     id="namedview44"
     showgrid="false"
     inkscape:zoom="3.0382741"
     inkscape:cx="184.06802"
     inkscape:cy="280.77564"
     inkscape:window-x="-8"
     inkscape:window-y="-8"
     inkscape:window-maximized="1"
     inkscape:current-layer="Capa_1" /><style
     type="text/css"
     id="style3">
	.st0{fill:#C93325;}
	.st1{fill:#B32F1F;}
	.st2{opacity:0.4;fill:#B4471F;}
	.st3{opacity:0.4;fill:#B55B1F;}
	.st4{opacity:0.4;fill:#BA841B;}
	.st5{opacity:0.4;fill:#BB9318;}
	.st6{fill:#FCC261;}
	.st7{fill:#FBC261;}
</style><path
     id="XMLID_7_-5"
     class="st1"
     d="m 99.615586,219.19374 c 1.300004,-1.9 2.800004,-3.6 5.700004,-5.3 3,-1.7 2.4,-2.6 3.8,-5.3 1.3,-2.7 2.6,-10.3 4.5,-14.7 1.9,-4.4 2,-7.9 4.3,-17.9 2.3,-10 6.1,-16.9 6.1,-16.9 3.1,-3.9 4,-9.1 4,-9.1 0.2,-5.1 2.8,-16.5 2.8,-16.5 0.9,-2.6 0.7,-6.2 0.7,-6.2 -0.8,-4.7 -0.7,-11.2 -0.7,-11.2 2.8,-25.399999 20.7,-20.199999 20.7,-20.199999 3.9,-0.1 12.6,-8.6 13.8,-10.6 1.2,-2.1 -0.2,-10.9 -0.2,-10.9 -1.1,-1 -1.2,-6.9 -1.2,-6.9 -2.6,0.4 -2.9,-5.4 -2.9,-5.4 -1.1,-7.1 1.9,-5.7 1.9,-5.7 -1.7,-18.3 8.3,-20.8 11.6,-21.1 l 0,198.499999 -0.5,0 c 1.3,13.7 -6.6,39.1 -6.6,46.5 0,7.4 -3.4,22.1 -4.4,30.6 -0.9,8.5 -2.2,8.9 0,19.9 2.2,11.1 -3.5,29.5 -4.1,35 -0.6,5.5 -1.6,12.2 -1.3,14.4 0.3,2.2 1.3,7 0.3,10 -0.9,3 0.6,6.6 0.6,6.6 2.5,3.3 -0.9,8.5 -3.1,8.9 -2.2,0.4 -5.6,2.6 -5.6,2.6 -0.9,5.5 -6.3,7.4 -6.3,7.4 -4.1,3 -6.6,0.4 -6.6,0.4 -11.9,-1.8 -0.3,-11.8 2.8,-14.4 3.1,-2.6 6.9,-9.6 7.5,-13.7 0.6,-4.1 1.6,-11.1 -0.9,-21.8 -2.5,-10.7 -3.4,-33.9 -3.1,-40.6 0.3,-6.6 2.2,-19.9 2.2,-25.5 0,-5.5 1.6,-12.9 -1.3,-26.2 -2.8,-13.3 -2.2,-33.6 -1.9,-43.2 0.3,-9.6 5.6,-32.1 5.6,-36.9 0,-4.8 1.9,-18.4 1.9,-18.4 2.2,-13.3 -3.8,-33.2 -3.8,-33.2 -0.6,1.1 -6.6,19.9 -6.6,19.9 0.6,7.4 -8.8,25.1 -8.8,25.1 -2.8,5.5 -10.3,22.5 -10.3,22.5 -0.3,1.5 -1.2,5.1 -1.4,7.5 -0.1,2.4 -0.6,3.2 -1,6 -0.5,2.8 -3,8.9 -3.3,9.9 -0.3,1 -0.7,2.7 -0.6,4.4 0.1,1.8 -0.4,7.7 -0.4,7.7 -0.2,1.9 -1.6,2.1 -1.6,2.1 -0.8,-0.1 -0.8,-0.9 -0.8,-0.9 -0.4,-0.7 0,-10.6 0,-10.9 0,-0.4 -0.6,-0.9 -0.6,0 0,0.8 -3.7,13 -3.7,13 -0.4,2.8 -2.1,2.5 -2.1,2.5 -0.9,-0.4 -0.8,-2.2 -0.6,-2.7 0.3,-0.5 2.3,-11.6 2.5,-12.9 0.2,-1.3 -0.5,-0.9 -0.5,-0.9 l -4.6,11.2 c -0.8,3.5 -2.500004,3 -2.500004,3 -1.3,-0.8 1.100004,-6.6 1.100004,-6.6 l 1.6,-7.9 c 0,0 -2.600004,4.1 -3.700004,6.8 -1.1,2.7 -2.6,2.4 -2.6,2.4 0,0 0,0 -0.1,-0.1 -1.4,-1.7 4.800004,-16.3 5.400004,-17.6 0.6,-1.3 -2.500004,0.4 -3.700004,1.6 -1.2,1.2 -3.2,0.1 -3.4,-1 -0.4,-1.4 4.6,-5.2 6,-7.1 z"
     style="fill:#0000ff"
     inkscape:connector-curvature="0" /><path
     id="XMLID_7_"
     class="st1"
     d="m 249.7,219 c -1.3,-1.9 -2.8,-3.6 -5.7,-5.3 -3,-1.7 -2.4,-2.6 -3.8,-5.3 -1.3,-2.7 -2.6,-10.3 -4.5,-14.7 -1.9,-4.4 -2,-7.9 -4.3,-17.9 -2.3,-10 -6.1,-16.9 -6.1,-16.9 -3.1,-3.9 -4,-9.1 -4,-9.1 -0.2,-5.1 -2.8,-16.5 -2.8,-16.5 -0.9,-2.6 -0.7,-6.2 -0.7,-6.2 0.8,-4.7 0.7,-11.2 0.7,-11.2 -2.8,-25.4 -20.7,-20.2 -20.7,-20.2 -3.9,-0.1 -12.6,-8.6 -13.8,-10.6 -1.2,-2.1 0.2,-10.9 0.2,-10.9 1.1,-1 1.2,-6.9 1.2,-6.9 2.6,0.4 2.9,-5.4 2.9,-5.4 1.1,-7.1 -1.9,-5.7 -1.9,-5.7 1.7,-18.3 -8.3,-20.8 -11.6,-21.1 l 0,198.5 0.5,0 c -1.3,13.7 6.6,39.1 6.6,46.5 0,7.4 3.4,22.1 4.4,30.6 0.9,8.5 2.2,8.9 0,19.9 -2.2,11.1 3.5,29.5 4.1,35 0.6,5.5 1.6,12.2 1.3,14.4 -0.3,2.2 -1.3,7 -0.3,10 0.9,3 -0.6,6.6 -0.6,6.6 -2.5,3.3 0.9,8.5 3.1,8.9 2.2,0.4 5.6,2.6 5.6,2.6 0.9,5.5 6.3,7.4 6.3,7.4 4.1,3 6.6,0.4 6.6,0.4 11.9,-1.8 0.3,-11.8 -2.8,-14.4 -3.1,-2.6 -6.9,-9.6 -7.5,-13.7 -0.6,-4.1 -1.6,-11.1 0.9,-21.8 2.5,-10.7 3.4,-33.9 3.1,-40.6 -0.3,-6.6 -2.2,-19.9 -2.2,-25.5 0,-5.5 -1.6,-12.9 1.3,-26.2 2.8,-13.3 2.2,-33.6 1.9,-43.2 -0.3,-9.6 -5.6,-32.1 -5.6,-36.9 0,-4.8 -1.9,-18.4 -1.9,-18.4 -2.2,-13.3 3.8,-33.2 3.8,-33.2 0.6,1.1 6.6,19.9 6.6,19.9 -0.6,7.4 8.8,25.1 8.8,25.1 2.8,5.5 10.3,22.5 10.3,22.5 0.3,1.5 1.2,5.1 1.4,7.5 0.1,2.4 0.6,3.2 1,6 0.5,2.8 3,8.9 3.3,9.9 0.3,1 0.7,2.7 0.6,4.4 -0.1,1.8 0.4,7.7 0.4,7.7 0.2,1.9 1.6,2.1 1.6,2.1 0.8,-0.1 0.8,-0.9 0.8,-0.9 0.4,-0.7 0,-10.6 0,-10.9 0,-0.4 0.6,-0.9 0.6,0 0,0.8 3.7,13 3.7,13 0.4,2.8 2.1,2.5 2.1,2.5 0.9,-0.4 0.8,-2.2 0.6,-2.7 -0.3,-0.5 -2.3,-11.6 -2.5,-12.9 -0.2,-1.3 0.5,-0.9 0.5,-0.9 l 4.6,11.2 c 0.8,3.5 2.5,3 2.5,3 1.3,-0.8 -1.1,-6.6 -1.1,-6.6 l -1.6,-7.9 c 0,0 2.6,4.1 3.7,6.8 1.1,2.7 2.6,2.4 2.6,2.4 0,0 0,0 0.1,-0.1 1.4,-1.7 -4.8,-16.3 -5.4,-17.6 -0.6,-1.3 2.5,0.4 3.7,1.6 1.2,1.2 3.2,0.1 3.4,-1 0.4,-1.4 -4.6,-5.2 -6,-7.1 z"
     style="fill:#ff00ff"
     inkscape:connector-curvature="0" /><g
     id="corazon"
     inkscape:label="#corazon"
     transform="translate(109.85,7.9129236)"
     style="fill:#fec261;fill-opacity:1"
     onmouseover="Salud Publica: 167. Salud "
     onclick="Salud Publica: 167. Salud "
     onmouseout="Salud Publica: 167. Salud "
     onmousemove="Salud Publica: 167. Salud "
     onfocusin="Salud Publica: 167. Salud "><path
       id="XMLID_21_"
       class="st6"
       d="m 56.3,110.3 c 0,0 -0.6,-0.4 -0.5,-0.9 0.1,-0.5 -0.4,-1.6 -0.6,-2 -0.2,-0.3 -2.4,-5.9 2.5,-8.3 0,0 0.8,-0.4 1,-0.4 0,0 2.2,-3.1 2.4,-4.7 0,0 0.1,-0.7 -0.1,-1 0,0 -0.3,-2.2 1.2,-2.3 0,0 1.3,-0.3 1.6,1.3 0,0 -0.1,0.9 0.2,0.8 0,0 2.1,-1.2 2.6,-0.4 0,0 0,-1.3 0.2,-1.4 l 1,-0.3 c 0,0 0.3,0.5 0.3,0.9 0,0 0.9,-0.4 1,-0.3 l 0.4,-1.2 c 0,0 0.9,-0.3 1.1,-0.1 0,0 0,1.1 -0.1,1.3 0,0 0.5,0 0.6,0.1 0,0 1,-1.3 1.2,-1.3 0,0 0.8,0.2 0.9,0.4 0,0 -0.4,1.1 -0.6,1.3 0,0 0.8,0.9 -0.2,1.7 0,0 0.1,1.1 -1.7,1.2 0,0 -1.6,0.1 -2,0.7 0,0 5.7,0.6 6.3,1.6 0,0 0.7,1.9 -1.2,2.6 l -1.9,0 c 0,0 0.9,1.1 1.5,1.2 0,0 2.1,0.4 2.1,1.1 0,0 -0.1,1.3 -2.1,0.3 l 1.9,1.4 c 0,0 -0.3,1 -1.1,0.7 0,0 0,2.6 -0.9,2.4 0,0 2,3.4 0.5,7.6 0,0 -1.2,3.6 -4.2,6.2 0,0 -0.4,0.4 -0.7,0.8 -0.3,0.4 -0.6,0.8 -1.2,0.9 -0.5,0.2 -1,0.3 -1.9,-0.1 -1,-0.4 -2.8,-1.6 -3.3,-1.8 C 62,120 60,118.7 59,117.2 c -0.9,-1.3 -2.8,-4.6 -2.7,-6.9 z"
       inkscape:connector-curvature="0"
       style="fill:#fec261;fill-opacity:1" /><path
       id="XMLID_20_"
       class="st6"
       d="m 64.7,118.5 c -0.5,-0.5 -0.6,-0.9 -0.5,-2.1 0.1,-0.6 0,-0.6 -0.3,-0.8 -0.2,-0.2 -0.5,-0.4 -0.8,-1.1 -0.3,-0.8 -0.5,-1.3 -0.5,-1.8 0,-0.5 0.1,-1 0.4,-1.6 0.2,-0.4 0.3,-0.7 0.5,-1.1 0.4,-0.8 0.8,-1.6 1.1,-2.4 0.4,-1.2 3,-3.1 3.1,-3.2 l 0.2,0.3 c 0,0 -2.7,1.9 -3,3 -0.3,0.8 -0.7,1.7 -1.1,2.5 -0.2,0.3 -0.4,0.7 -0.5,1.1 -0.5,1.1 -0.5,1.8 0.1,3.1 0.3,0.6 0.5,0.8 0.7,1 0.3,0.2 0.5,0.4 0.4,1.1 -0.1,1.2 0,1.4 0.4,1.8 l -0.2,0.2 z"
       inkscape:connector-curvature="0"
       style="fill:#fec261;fill-opacity:1" /><path
       id="XMLID_19_"
       class="st6"
       d="m 65,111.8 -0.3,0 c 0,-0.1 0.1,-0.2 0.1,-0.3 0.1,-0.1 0.1,-0.1 0.1,-0.2 0,-0.1 -0.1,-0.4 -0.3,-0.7 -0.7,-1.2 -0.2,-2.4 -0.2,-2.5 l 0.3,0.1 -0.1,-0.1 0.1,0.1 c 0,0 -0.5,1.2 0.2,2.2 0.4,0.8 0.4,1.1 0.1,1.4 0,0 0,0 0,0 z"
       inkscape:connector-curvature="0"
       style="fill:#fec261;fill-opacity:1" /><path
       id="XMLID_18_"
       class="st6"
       d="m 65.3,115.2 c -0.1,-0.6 -0.3,-0.8 -1,-1.4 -0.1,-0.1 -0.3,-0.3 -0.5,-0.4 -1.1,-1 -0.5,-3 -0.5,-3.1 l 0.3,0.1 c 0,0 -0.6,1.8 0.4,2.7 0.2,0.2 0.3,0.3 0.5,0.4 0.7,0.6 0.9,0.8 1.1,1.6 l -0.3,0.1 z"
       inkscape:connector-curvature="0"
       style="fill:#fec261;fill-opacity:1" /><path
       id="XMLID_17_"
       class="st6"
       d="m 59.7,114.6 c -0.3,-0.7 -0.3,-1 0.2,-2.1 0.2,-0.5 0.2,-0.6 0,-0.9 -0.2,-0.2 -0.4,-0.6 -0.4,-1.3 -0.1,-0.8 -0.1,-1.4 0,-1.9 0.1,-0.5 0.4,-0.9 0.8,-1.4 0.3,-0.3 0.5,-0.6 0.8,-0.8 0.6,-0.6 1.2,-1.2 1.7,-1.9 0.7,-1 3.8,-1.9 3.9,-2 l 0.1,0.3 c 0,0 -3.1,0.9 -3.8,1.9 -0.5,0.7 -1.1,1.3 -1.8,2 -0.3,0.3 -0.5,0.5 -0.8,0.8 -0.8,0.9 -1,1.5 -0.8,3 0.1,0.6 0.3,0.9 0.4,1.2 0.2,0.3 0.3,0.6 0,1.2 -0.5,1.1 -0.4,1.3 -0.2,1.9 l -0.1,0 z"
       inkscape:connector-curvature="0"
       style="fill:#fec261;fill-opacity:1" /><path
       id="XMLID_16_"
       class="st6"
       d="m 61.4,108.8 -0.3,-0.2 c 0.1,-0.1 0.2,-0.2 0.2,-0.2 0.1,0 0.1,0 0.1,-0.1 0,-0.1 0,-0.4 -0.1,-0.8 -0.3,-1.4 0.6,-2.3 0.7,-2.4 l 0.2,0.2 -0.1,-0.1 0.1,0.1 c 0,0 -0.8,0.9 -0.6,2.1 0.3,1 0.2,1.2 -0.2,1.4 0.1,0 0,0 0,0 z"
       inkscape:connector-curvature="0"
       style="fill:#fec261;fill-opacity:1" /><path
       id="XMLID_15_"
       class="st6"
       d="m 61.9,112 -0.3,0 c 0,-0.7 -0.2,-0.8 -0.7,-1.6 -0.1,-0.1 -0.2,-0.3 -0.4,-0.5 -0.9,-1.2 0,-3 0.1,-3.1 l 0.3,0.2 -0.1,-0.1 0.1,0.1 c 0,0 -0.9,1.7 -0.1,2.8 0.1,0.2 0.3,0.4 0.4,0.5 0.4,0.7 0.7,0.9 0.7,1.7 z"
       inkscape:connector-curvature="0"
       style="fill:#fec261;fill-opacity:1" /><path
       id="XMLID_14_"
       class="st6"
       d="m 67.9,113.8 -0.3,-0.1 c 0.2,-0.4 0.3,-0.5 0.6,-0.9 0.2,-0.2 0.4,-0.4 0.7,-0.8 0.6,-0.7 0.6,-1.1 0.6,-1.9 0,-0.3 0,-0.5 0,-0.9 0,-1.6 1.8,-3.1 1.9,-3.1 l 0.2,0.3 c 0,0 -1.8,1.5 -1.8,2.9 0,0.3 0,0.6 0,0.9 0,0.8 0.1,1.3 -0.6,2.2 -0.3,0.4 -0.6,0.6 -0.7,0.8 -0.4,0.2 -0.5,0.3 -0.6,0.6 z"
       inkscape:connector-curvature="0"
       style="fill:#fec261;fill-opacity:1" /><path
       id="XMLID_13_"
       class="st6"
       d="m 71,112.9 -0.3,0 c 0,-0.1 0,-0.2 0.1,-0.3 0.1,-0.3 0.1,-0.4 -0.6,-1.3 -1,-1.2 -0.7,-2.3 -0.7,-2.4 l 0.3,0.1 c 0,0 -0.2,1.1 0.6,2.1 0.7,0.9 0.8,1.1 0.6,1.5 0,0.1 0,0.2 0,0.3 z"
       inkscape:connector-curvature="0"
       style="fill:#fec261;fill-opacity:1" /><path
       id="XMLID_12_"
       class="st6"
       d="m 66.5,113.8 c 0,-0.6 0.2,-1 0.5,-1.4 0.1,-0.2 0.2,-0.4 0.3,-0.6 0.2,-0.4 0.5,-0.6 0.8,-0.8 0.3,-0.2 0.5,-0.3 0.7,-0.7 0.3,-0.8 0.9,-2 0.9,-2 l 0.3,0.1 c 0,0 -0.6,1.2 -0.9,2 -0.2,0.5 -0.5,0.7 -0.8,0.8 -0.3,0.2 -0.5,0.3 -0.7,0.7 -0.1,0.2 -0.2,0.4 -0.3,0.6 -0.2,0.4 -0.4,0.8 -0.4,1.3 l -0.4,0 z"
       inkscape:connector-curvature="0"
       style="fill:#fec261;fill-opacity:1" /><path
       id="XMLID_11_"
       class="st6"
       d="m 60.5,109.8 c 0,0 0.6,1.3 0.4,2 -0.3,0.8 -0.6,1.5 -0.3,2.3"
       inkscape:connector-curvature="0"
       style="fill:#fec261;fill-opacity:1" /></g><path
     id="pulmones"
     class="st6"
     d="m 187.78093,145.54894 c -2.4,-7.1 -7.2,-8 -7.2,-8 -1,-0.5 -1.1,-0.5 -2.2,0.2 -1.2,0.7 -0.8,2.7 -0.8,3.4 0,0.2 0,0.6 0,1.1 -0.8,-0.2 -1.4,-0.8 -1.8,-1.3 0,-2.6 0.3,-7.1 0.3,-7.1 l -1.7,0 c 0,0 0.3,4.2 0.2,6.9 -0.4,0.5 -1,0.9 -1.6,1.2 0,-0.4 0,-0.6 0,-0.8 0.1,-0.6 0.4,-2.7 -0.8,-3.4 -1.2,-0.7 -1.3,-0.6 -2.2,-0.2 0,0 -4.8,0.9 -7.2,8 -2.4,7.1 -2.1,11.3 0.3,12.7 2.4,1.4 7.1,0.8 8.8,-0.2 1.8,-1.1 1.2,-3.2 1.2,-4 -0.1,-0.8 0.2,-2.9 0.3,-3.5 0.1,-0.4 0.1,-2.6 0,-4.2 0.8,-1 1.7,-0.9 1.7,-0.9 1,0 1.7,0.7 2.1,1.2 0,1.6 0,3.5 0.1,4 0.2,0.7 0.4,2.7 0.3,3.5 -0.1,0.8 -0.6,3 1.2,4 1.8,1.1 6.4,1.6 8.8,0.2 2.3,-1.5 2.6,-5.8 0.2,-12.8 z"
     inkscape:connector-curvature="0"
     style="fill:#fcc261" /><g
     id="higado"
     transform="translate(108.91907,-31.186228)"
     style="fill:#fcc261;fill-opacity:1"><g
       id="XMLID_25_"
       style="fill:#fcc261;fill-opacity:1"><path
         id="XMLID_29_"
         class="st6"
         d="m 59.9,214.5 c 0.3,0.4 0.7,0.6 1,0.5 0.3,-0.1 0.6,-0.5 0.7,-1.2 -0.6,0.3 -1.2,0.5 -1.7,0.7 z"
         inkscape:connector-curvature="0"
         style="fill:#fcc261;fill-opacity:1" /><path
         id="XMLID_28_"
         class="st6"
         d="m 75.9,203.6 c 0.2,-0.3 0.3,-0.5 0.5,-0.8 0.9,-1.6 1.8,-3.2 1.5,-4.1 -0.4,-1 -2.5,-1.6 -6.3,-1.6 0,0 -0.1,0 -0.1,0 -1,1.3 -1.3,4.1 -1.4,5.6 0.2,1.7 0,3.5 -0.5,5.4 1.2,-0.4 4.5,-1.2 6.3,-4.5 z"
         inkscape:connector-curvature="0"
         style="fill:#fcc261;fill-opacity:1" /><path
         id="XMLID_27_"
         class="st6"
         d="m 68,197.2 c -0.1,0 -0.1,0 -0.2,0 0.8,1.1 1.3,2.2 1.7,3.3 0.2,-1.3 0.6,-2.4 1,-3.4 -0.7,0 -1.6,0.1 -2.5,0.1 z"
         inkscape:connector-curvature="0"
         style="fill:#fcc261;fill-opacity:1" /><path
         id="XMLID_26_"
         class="st6"
         d="m 68.6,208.2 c 0.6,-1.8 0.8,-3.5 0.7,-5.2 0,-0.1 0,-0.2 0,-0.2 0,0 0,0 0,-0.1 -0.3,-1.9 -1.1,-3.7 -2.4,-5.5 -0.1,0 -0.1,0 -0.2,0 -0.9,0 -1.9,0 -2.8,-0.1 -0.9,0 -1.8,-0.1 -2.7,-0.1 -2.7,0 -5.4,0.4 -6.6,3 -1.8,3.7 -1.4,7.5 -1.1,10.8 0.1,0.7 0.1,1.4 0.2,2.1 0.2,2.4 0.5,4 1.3,4 0.7,0 1.7,-0.9 3.1,-2.5 0,0 0.1,-0.1 0.1,-0.1 0.1,-0.1 8.5,-3.4 10.4,-6.1 z"
         inkscape:connector-curvature="0"
         style="fill:#fcc261;fill-opacity:1" /></g></g><g
     id="rinones"
     transform="translate(111.2464,-46.081143)"
     style="fill:#fcc261;fill-opacity:1"><g
       id="XMLID_31_"
       style="fill:#fcc261;fill-opacity:1"><g
         id="XMLID_32_"
         style="fill:#fcc261;fill-opacity:1"><path
           id="XMLID_40_"
           class="st7"
           d="m 61,252.3 c -0.4,0.4 -0.9,0.7 -1.3,0.9 0.4,0.2 0.8,0.4 1.3,0.8 1,-0.5 2,-0.8 2.6,-1 -0.1,-0.4 -0.2,-0.8 -0.3,-1 -0.8,0.1 -1.6,0.3 -2.3,0.3 z"
           inkscape:connector-curvature="0"
           style="fill:#fcc261;fill-opacity:1" /><path
           id="XMLID_38_"
           class="st7"
           d="m 60.2,262.5 c -0.5,1.5 -2.1,2.6 -4.1,2.6 l 0,0 c -2.8,0 -5.3,-1.9 -6.7,-5 -2.4,-5.5 0.4,-10.6 0.8,-11.3 0.2,-0.2 0.7,-0.6 2,-0.3 0.2,0.1 0.5,-0.1 0.5,-0.4 0.1,-0.3 -0.1,-0.5 -0.3,-0.6 -0.7,-0.2 -1.2,-0.2 -1.6,-0.1 1.3,-2.9 4,-4.2 6.4,-4.2 2.2,0 4,1.1 4.5,2.8 0.4,1.6 0.3,3 -0.3,4.2 -0.8,1.4 -2.3,2 -2.7,2.2 -0.6,-0.2 -1.9,-0.9 -2.3,-1.9 -0.1,-0.2 -0.4,-0.3 -0.6,-0.2 -0.2,0.1 -0.3,0.4 -0.2,0.6 0.5,1.3 1.8,2 2.6,2.3 -0.2,0.7 0,1.4 0.2,1.9 0,0 -0.5,1.8 -2.3,2.6 -0.2,0.1 -0.3,0.4 -0.2,0.6 0.1,0.2 0.2,0.3 0.4,0.3 0.1,0 0.1,0 0.2,0 1.4,-0.6 2.1,-1.8 2.5,-2.5 0.4,0.8 2.2,3.4 1.2,6.4 z"
           inkscape:connector-curvature="0"
           style="fill:#fcc261;fill-opacity:1" /><path
           id="XMLID_37_"
           class="st7"
           d="m 60.2,254.6 c -0.5,-0.3 -0.9,-0.6 -1.3,-0.7 -0.1,0.7 0.3,1.4 0.4,1.5 0.1,0.1 0.5,0.6 0.8,1.2 0.9,1 1.5,2.4 1.8,3.4 l 1.4,0 c -0.4,-3 -1.4,-4.3 -3.1,-5.4 z"
           inkscape:connector-curvature="0"
           style="fill:#fcc261;fill-opacity:1" /><path
           id="XMLID_36_"
           class="st7"
           d="m 56.3,258.7 c -0.1,0 -0.1,0 -0.2,0 -0.2,0 -0.3,-0.1 -0.4,-0.3 -0.1,-0.2 0,-0.5 0.2,-0.6 1.7,-0.8 2.2,-2.5 2.3,-2.6 -0.2,-0.5 -0.4,-1.2 -0.2,-1.9 -0.7,-0.3 -2.1,-1 -2.6,-2.3 -0.1,-0.2 0,-0.5 0.2,-0.6 0.2,-0.1 0.5,0 0.6,0.2 0.4,1 1.7,1.7 2.3,1.9 0.4,-0.1 1.9,-0.7 2.7,-2.2 0.6,-1.1 0.7,-2.5 0.3,-4.2 -0.5,-1.7 -2.2,-2.8 -4.5,-2.8 -2.4,0 -5.1,1.3 -6.4,4.2 0.4,-0.1 1,-0.1 1.6,0.1 0.2,0.1 0.4,0.3 0.3,0.6 -0.1,0.3 -0.3,0.4 -0.5,0.4 -1.2,-0.3 -1.7,0 -2,0.3 -0.4,0.7 -3.2,5.8 -0.8,11.3 1.4,3.1 3.8,5 6.7,5 l 0,0 c 2,0 3.6,-1.1 4.1,-2.6 0.9,-3 -0.9,-5.6 -1.5,-6.3 -0.1,0.6 -0.8,1.8 -2.2,2.4 z"
           inkscape:connector-curvature="0"
           style="fill:#fcc261;fill-opacity:1" /><path
           id="XMLID_35_"
           class="st7"
           d="m 69.7,253.2 c -0.4,-0.2 -0.8,-0.5 -1.3,-0.9 -0.8,-0.1 -1.5,-0.2 -2.3,-0.4 -0.1,0.3 -0.2,0.6 -0.3,1 0.6,0.2 1.6,0.5 2.6,1 0.4,-0.3 0.8,-0.6 1.3,-0.7 z"
           inkscape:connector-curvature="0"
           style="fill:#fcc261;fill-opacity:1" /><path
           id="XMLID_34_"
           class="st7"
           d="m 70,255.4 c 0.1,-0.1 0.5,-0.7 0.4,-1.5 -1.5,0.6 -3.8,1.1 -4.4,6.1 l 1.4,0 c 0.3,-1 0.8,-2.4 1.7,-3.3 0.5,-0.7 0.8,-1.2 0.9,-1.3 z"
           inkscape:connector-curvature="0"
           style="fill:#fcc261;fill-opacity:1" /><path
           id="XMLID_33_"
           class="st7"
           d="m 79,248.8 c -0.2,-0.2 -0.7,-0.6 -2,-0.3 -0.2,0.1 -0.5,-0.1 -0.5,-0.4 -0.1,-0.3 0.1,-0.5 0.3,-0.6 0.7,-0.2 1.2,-0.2 1.6,-0.1 -1.3,-2.9 -4,-4.2 -6.4,-4.2 -2.2,0 -4,1.1 -4.5,2.8 -0.4,1.6 -0.3,3 0.3,4.2 0.8,1.4 2.3,2 2.7,2.2 0.4,-0.2 1.9,-0.8 2.3,-1.9 0.1,-0.2 0.4,-0.3 0.6,-0.2 0.2,0.1 0.3,0.4 0.2,0.6 -0.5,1.3 -1.8,2 -2.6,2.3 0.2,0.7 0,1.4 -0.2,1.9 0,0 0,0 0,0 0,0 0.5,1.8 2.3,2.6 0.2,0.1 0.3,0.4 0.2,0.6 -0.1,0.2 -0.2,0.3 -0.4,0.3 -0.1,0 -0.1,0 -0.2,0 -1.4,-0.7 -2.1,-1.8 -2.5,-2.5 -0.6,0.7 -2.4,3.3 -1.5,6.2 0.5,1.5 2.1,2.5 4.1,2.5 2.8,0 5.3,-1.8 6.7,-4.9 2.7,-5.4 -0.1,-10.4 -0.5,-11.1 z"
           inkscape:connector-curvature="0"
           style="fill:#fcc261;fill-opacity:1" /></g></g></g></svg>