<?xml version="1.0" encoding="utf-8"?>
<!-- Generator: Adobe Illustrator 19.0.0, SVG Export Plug-In . SVG Version: 6.00 Build 0)  -->
<svg version="1.1" id="Capa_1" xmlns="http://www.w3.org/2000/svg" xmlns:xlink="http://www.w3.org/1999/xlink" x="0px" y="0px"
	 viewBox="0 0 283.5 439.4" style="enable-background:new 0 0 283.5 439.4;" xml:space="preserve">
<style type="text/css">
	.st0{fill:#C93325;}
	.st1{fill:#B32F1F;}
	.st2{opacity:0.4;fill:#B4471F;}
	.st3{opacity:0.4;fill:#B55B1F;}
	.st4{opacity:0.4;fill:#BA841B;}
	.st5{opacity:0.4;fill:#BB9318;}
	.st6{fill:#FCC261;}
	.st7{fill:#FBC261;}
</style>
<path id="XMLID_8_" class="st0" d="M164.5,85.9c0,0,0.3-10.2-0.7-11.8c0,0-1.3-5.2-1-6.6c0,0-2.9-0.3-3.1-5.7c0,0-0.7-9.1,2-4.8
	c0,0-3.6-21.4,12.2-21.9c0,0,14.6-0.6,12.6,21.1c0,0,3-1.4,1.9,5.7c0,0-0.2,5.8-2.9,5.4c0,0-0.1,5.8-1.2,6.9c0,0-1.4,8.8-0.2,10.9
	c1.2,2.1,9.9,10.5,13.8,10.6c0,0,18-5.2,20.7,20.2c0,0,0.1,6.5-0.7,11.2c0,0-0.2,3.6,0.7,6.2c0,0,2.5,11.4,2.8,16.5
	c0,0,0.9,5.2,4,9.1c0,0,3.8,6.9,6.1,16.9c2.3,10,2.4,13.5,4.3,17.9c1.9,4.4,3.2,11.9,4.5,14.7c1.3,2.7,0.8,3.6,3.8,5.3
	c3,1.7,4.4,3.4,5.7,5.3c1.3,1.9,6.4,5.7,6.2,6.9c-0.2,1.2-2.2,2.2-3.4,1c-1.2-1.2-4.3-2.9-3.7-1.6c0.5,1.3,6.8,15.9,5.4,17.6
	c0,0,0,0-0.1,0.1c0,0-1.5,0.3-2.6-2.4c-1.1-2.7-3.7-6.8-3.7-6.8l1.6,7.9c0,0,2.4,5.8,1.1,6.6c0,0-1.7,0.5-2.5-3l-4.6-11.2
	c0,0-0.6-0.5-0.5,0.9c0.2,1.3,2.2,12.5,2.5,12.9c0.3,0.4,0.3,2.3-0.6,2.7c0,0-1.7,0.3-2.1-2.5c0,0-3.8-12.2-3.7-13
	c0-0.8-0.6-0.3-0.6,0c0,0.4,0.3,10.3,0,10.9c0,0-0.1,0.8-0.8,0.9c0,0-1.4-0.2-1.6-2.1c0,0-0.5-5.9-0.4-7.7c0.1-1.8-0.3-3.4-0.6-4.4
	c-0.3-1-2.8-7.1-3.3-9.9c-0.5-2.8-0.9-3.6-1-6c-0.1-2.4-1-6-1.4-7.5c0,0-7.5-17-10.3-22.5c0,0-9.4-17.7-8.8-25.1
	c0,0-6-18.8-6.6-19.9c0,0-6,19.9-3.8,33.2c0,0,1.9,13.7,1.9,18.4c0,4.8,5.3,27.3,5.6,36.9c0.3,9.6,0.9,29.9-1.9,43.2
	c-2.8,13.3-1.3,20.7-1.3,26.2c0,5.5,1.9,18.8,2.2,25.5c0.3,6.6-0.6,29.9-3.1,40.6c-2.5,10.7-1.6,17.7-0.9,21.8
	c0.6,4.1,4.4,11.1,7.5,13.7c3.1,2.6,14.7,12.5,2.8,14.4c0,0-2.5,2.6-6.6-0.4c0,0-5.3-1.8-6.3-7.4c0,0-3.4-2.2-5.6-2.6
	c-2.2-0.4-5.6-5.5-3.1-8.9c0,0,1.6-3.7,0.6-6.6c-0.9-3,0-7.7,0.3-10c0.3-2.2-0.6-8.9-1.3-14.4c-0.6-5.5-6.3-24-4.1-35
	c2.2-11.1,0.9-11.4,0-19.9c-0.9-8.5-4.4-23.2-4.4-30.6c0-7.4-7.8-32.8-6.6-46.5h-2.2c0,0-3.4,36.9-8.2,59.4c0,0-0.6,16.6-3.8,21.8
	c0,0,0.3,6.6,0.9,12.2c0.6,5.5,1.6,18.4-1.3,25.8c-2.8,7.4-4.1,26.6-4.1,31.4c0,4.8-0.9,7,0.3,10.7c1.3,3.7,3.1,7.7,0,9.6
	c-3.1,1.8-8.5,3.3-9.1,4.8c-0.6,1.5-9.1,12.9-13.8,5.9c0,0-8.8-2.2-2.8-7.7c0,0,6.3-3.3,9.4-7.7c3.1-4.4,4.7-8.5,5.3-9.6
	c0.6-1.1,0.9-9.6,0.6-14.8c-0.3-5.2-5-38.4-4.1-45c0.9-6.6,2.5-18.1,3.4-24c0.9-5.9-0.3-14.8-0.3-18.1c0-3.3-6-40.2-4.4-53.5
	c1.6-13.3,2.8-29.9,5-36.9c2.2-7,3.1-23.6,3.4-28.8c0.3-5.2-3.8-25.1-4.4-26.9c0,0-5,15.1-6.6,20.7c-1.6,5.5-0.3,8.9-4.1,15.9
	c-3.8,7-8.8,17-12.2,25.5c-3.5,8.5-3.8,15.1-5.3,21.8c-1.6,6.6-3.5,8.9-3.5,8.9l-0.5,10.3c0,0,0,2.1-1.3,2.4c0,0-1.7-0.4-1.1-2.4
	c0,0,0.4-8.6,0.1-9.7c0,0-0.3-0.5-0.7,0.2c-0.4,0.7-3.5,13.3-4,14.2c-0.6,0.9-0.9,1.4-1.6,1.3c0,0-1.6-0.7-0.8-2.6
	c0,0,1.2-5.9,1.8-7.1c0.6-1.2,1.4-6.2,1.2-6.7c-0.2-0.4-0.5-0.5-0.8-0.2c-0.3,0.3-3.1,8.6-3.5,9.4c-0.4,0.8-1.8,6-3.7,5.5
	c0,0-1.9-0.8-0.4-3.8c0,0,1.6-5.3,2.1-6.1c0.5-0.7,2.1-6,2-6.7c-0.1-0.7-0.6,0.4-0.8,0.7c-0.2,0.2-3.7,7.2-4.2,8.2
	c-0.6,1-1.6,2-2.4,1.7c0,0-1.3-0.2-0.1-3.3c0,0,2.7-5.6,3.5-8c0.8-2.4,1.9-7.6,2.2-8.2c0,0-1.6,1.4-2.3,2.2
	c-0.8,0.8-3.5,1.8-4.5,1.2c-1-0.6-1.5-1.2-0.5-1.9c1-0.7,2.7-2.5,3.3-3.1c0.6-0.6,3.7-3.5,4.2-4.5c0.5-1,4-4.2,4.7-4.8
	c0.6-0.7,3.1-4.8,3.8-6.8c0.7-2,5.2-14.9,5.9-18.4c0.7-3.5,2.5-15.7,3.3-18.6c0.7-2.9,3-7.2,4.2-9.6c1.3-2.3,4.5-8.3,4.8-11.5
	c0.3-3.2,1.5-11.7,2.1-13.6c0.6-1.9,0.6-7.2,0.4-10c-0.1-2.8-2.3-14.6,3.7-21.7c6.1-7.2,12-8.2,15.6-7.4
	C149.7,95.5,157.4,93.5,164.5,85.9z"/>
<path id="XMLID_7_" class="st1" d="M249.7,219c-1.3-1.9-2.8-3.6-5.7-5.3c-3-1.7-2.4-2.6-3.8-5.3c-1.3-2.7-2.6-10.3-4.5-14.7
	c-1.9-4.4-2-7.9-4.3-17.9c-2.3-10-6.1-16.9-6.1-16.9c-3.1-3.9-4-9.1-4-9.1c-0.2-5.1-2.8-16.5-2.8-16.5c-0.9-2.6-0.7-6.2-0.7-6.2
	c0.8-4.7,0.7-11.2,0.7-11.2c-2.8-25.4-20.7-20.2-20.7-20.2c-3.9-0.1-12.6-8.6-13.8-10.6c-1.2-2.1,0.2-10.9,0.2-10.9
	c1.1-1,1.2-6.9,1.2-6.9c2.6,0.4,2.9-5.4,2.9-5.4c1.1-7.1-1.9-5.7-1.9-5.7c1.7-18.3-8.3-20.8-11.6-21.1v198.5h0.5
	c-1.3,13.7,6.6,39.1,6.6,46.5c0,7.4,3.4,22.1,4.4,30.6c0.9,8.5,2.2,8.9,0,19.9c-2.2,11.1,3.5,29.5,4.1,35c0.6,5.5,1.6,12.2,1.3,14.4
	c-0.3,2.2-1.3,7-0.3,10c0.9,3-0.6,6.6-0.6,6.6c-2.5,3.3,0.9,8.5,3.1,8.9c2.2,0.4,5.6,2.6,5.6,2.6c0.9,5.5,6.3,7.4,6.3,7.4
	c4.1,3,6.6,0.4,6.6,0.4c11.9-1.8,0.3-11.8-2.8-14.4c-3.1-2.6-6.9-9.6-7.5-13.7c-0.6-4.1-1.6-11.1,0.9-21.8
	c2.5-10.7,3.4-33.9,3.1-40.6c-0.3-6.6-2.2-19.9-2.2-25.5c0-5.5-1.6-12.9,1.3-26.2c2.8-13.3,2.2-33.6,1.9-43.2
	c-0.3-9.6-5.6-32.1-5.6-36.9c0-4.8-1.9-18.4-1.9-18.4c-2.2-13.3,3.8-33.2,3.8-33.2c0.6,1.1,6.6,19.9,6.6,19.9
	c-0.6,7.4,8.8,25.1,8.8,25.1c2.8,5.5,10.3,22.5,10.3,22.5c0.3,1.5,1.2,5.1,1.4,7.5c0.1,2.4,0.6,3.2,1,6c0.5,2.8,3,8.9,3.3,9.9
	c0.3,1,0.7,2.7,0.6,4.4c-0.1,1.8,0.4,7.7,0.4,7.7c0.2,1.9,1.6,2.1,1.6,2.1c0.8-0.1,0.8-0.9,0.8-0.9c0.4-0.7,0-10.6,0-10.9
	c0-0.4,0.6-0.9,0.6,0c0,0.8,3.7,13,3.7,13c0.4,2.8,2.1,2.5,2.1,2.5c0.9-0.4,0.8-2.2,0.6-2.7c-0.3-0.5-2.3-11.6-2.5-12.9
	c-0.2-1.3,0.5-0.9,0.5-0.9l4.6,11.2c0.8,3.5,2.5,3,2.5,3c1.3-0.8-1.1-6.6-1.1-6.6l-1.6-7.9c0,0,2.6,4.1,3.7,6.8
	c1.1,2.7,2.6,2.4,2.6,2.4c0,0,0,0,0.1-0.1c1.4-1.7-4.8-16.3-5.4-17.6c-0.6-1.3,2.5,0.4,3.7,1.6c1.2,1.2,3.2,0.1,3.4-1
	C256.1,224.7,251.1,220.9,249.7,219z"/>
<rect id="XMLID_5_" x="45.5" y="84.4" class="st2" width="129.4" height="43.9"/>
<rect id="XMLID_4_" x="45.5" y="133.7" class="st3" width="129.4" height="43.9"/>
<rect id="XMLID_3_" x="45.5" y="183.1" class="st4" width="129.4" height="43.9"/>
<rect id="XMLID_2_" x="45.5" y="232" class="st5" width="129.4" height="43.9"/>
<ellipse id="XMLID_9_" class="st1" cx="64.9" cy="105.9" rx="19.5" ry="20.2"/>
<ellipse id="XMLID_22_" class="st1" cx="64.9" cy="155.7" rx="19.5" ry="20.2"/>
<ellipse id="XMLID_23_" class="st1" cx="64.9" cy="205.1" rx="19.5" ry="20.2"/>
<ellipse id="XMLID_24_" class="st1" cx="64.9" cy="253.9" rx="19.5" ry="20.2"/>
<g id="XMLID_10_">
	<path id="XMLID_21_" class="st6" d="M56.3,110.3c0,0-0.6-0.4-0.5-0.9c0.1-0.5-0.4-1.6-0.6-2c-0.2-0.3-2.4-5.9,2.5-8.3
		c0,0,0.8-0.4,1-0.4c0,0,2.2-3.1,2.4-4.7c0,0,0.1-0.7-0.1-1c0,0-0.3-2.2,1.2-2.3c0,0,1.3-0.3,1.6,1.3c0,0-0.1,0.9,0.2,0.8
		c0,0,2.1-1.2,2.6-0.4c0,0,0-1.3,0.2-1.4l1-0.3c0,0,0.3,0.5,0.3,0.9c0,0,0.9-0.4,1-0.3l0.4-1.2c0,0,0.9-0.3,1.1-0.1
		c0,0,0,1.1-0.1,1.3c0,0,0.5,0,0.6,0.1c0,0,1-1.3,1.2-1.3c0,0,0.8,0.2,0.9,0.4c0,0-0.4,1.1-0.6,1.3c0,0,0.8,0.9-0.2,1.7
		c0,0,0.1,1.1-1.7,1.2c0,0-1.6,0.1-2,0.7c0,0,5.7,0.6,6.3,1.6c0,0,0.7,1.9-1.2,2.6l-1.9,0c0,0,0.9,1.1,1.5,1.2c0,0,2.1,0.4,2.1,1.1
		c0,0-0.1,1.3-2.1,0.3l1.9,1.4c0,0-0.3,1-1.1,0.7c0,0,0,2.6-0.9,2.4c0,0,2,3.4,0.5,7.6c0,0-1.2,3.6-4.2,6.2c0,0-0.4,0.4-0.7,0.8
		c-0.3,0.4-0.6,0.8-1.2,0.9c-0.5,0.2-1,0.3-1.9-0.1c-1-0.4-2.8-1.6-3.3-1.8c-0.5-0.3-2.5-1.6-3.5-3.1
		C58.1,115.9,56.2,112.6,56.3,110.3z"/>
	<path id="XMLID_20_" class="st6" d="M64.7,118.5c-0.5-0.5-0.6-0.9-0.5-2.1c0.1-0.6,0-0.6-0.3-0.8c-0.2-0.2-0.5-0.4-0.8-1.1
		c-0.3-0.8-0.5-1.3-0.5-1.8c0-0.5,0.1-1,0.4-1.6c0.2-0.4,0.3-0.7,0.5-1.1c0.4-0.8,0.8-1.6,1.1-2.4c0.4-1.2,3-3.1,3.1-3.2l0.2,0.3
		c0,0-2.7,1.9-3,3c-0.3,0.8-0.7,1.7-1.1,2.5c-0.2,0.3-0.4,0.7-0.5,1.1c-0.5,1.1-0.5,1.8,0.1,3.1c0.3,0.6,0.5,0.8,0.7,1
		c0.3,0.2,0.5,0.4,0.4,1.1c-0.1,1.2,0,1.4,0.4,1.8L64.7,118.5z"/>
	<path id="XMLID_19_" class="st6" d="M65,111.8l-0.3,0c0-0.1,0.1-0.2,0.1-0.3c0.1-0.1,0.1-0.1,0.1-0.2c0-0.1-0.1-0.4-0.3-0.7
		c-0.7-1.2-0.2-2.4-0.2-2.5l0.3,0.1l-0.1-0.1l0.1,0.1c0,0-0.5,1.2,0.2,2.2C65.3,111.2,65.3,111.5,65,111.8
		C65,111.8,65,111.8,65,111.8z"/>
	<path id="XMLID_18_" class="st6" d="M65.3,115.2c-0.1-0.6-0.3-0.8-1-1.4c-0.1-0.1-0.3-0.3-0.5-0.4c-1.1-1-0.5-3-0.5-3.1l0.3,0.1
		c0,0-0.6,1.8,0.4,2.7c0.2,0.2,0.3,0.3,0.5,0.4c0.7,0.6,0.9,0.8,1.1,1.6L65.3,115.2z"/>
	<path id="XMLID_17_" class="st6" d="M59.7,114.6c-0.3-0.7-0.3-1,0.2-2.1c0.2-0.5,0.2-0.6,0-0.9c-0.2-0.2-0.4-0.6-0.4-1.3
		c-0.1-0.8-0.1-1.4,0-1.9c0.1-0.5,0.4-0.9,0.8-1.4c0.3-0.3,0.5-0.6,0.8-0.8c0.6-0.6,1.2-1.2,1.7-1.9c0.7-1,3.8-1.9,3.9-2l0.1,0.3
		c0,0-3.1,0.9-3.8,1.9c-0.5,0.7-1.1,1.3-1.8,2c-0.3,0.3-0.5,0.5-0.8,0.8c-0.8,0.9-1,1.5-0.8,3c0.1,0.6,0.3,0.9,0.4,1.2
		c0.2,0.3,0.3,0.6,0,1.2c-0.5,1.1-0.4,1.3-0.2,1.9L59.7,114.6z"/>
	<path id="XMLID_16_" class="st6" d="M61.4,108.8l-0.3-0.2c0.1-0.1,0.2-0.2,0.2-0.2c0.1,0,0.1,0,0.1-0.1c0-0.1,0-0.4-0.1-0.8
		c-0.3-1.4,0.6-2.3,0.7-2.4l0.2,0.2l-0.1-0.1l0.1,0.1c0,0-0.8,0.9-0.6,2.1C61.9,108.4,61.8,108.6,61.4,108.8
		C61.5,108.8,61.4,108.8,61.4,108.8z"/>
	<path id="XMLID_15_" class="st6" d="M61.9,112l-0.3,0c0-0.7-0.2-0.8-0.7-1.6c-0.1-0.1-0.2-0.3-0.4-0.5c-0.9-1.2,0-3,0.1-3.1
		l0.3,0.2l-0.1-0.1l0.1,0.1c0,0-0.9,1.7-0.1,2.8c0.1,0.2,0.3,0.4,0.4,0.5C61.6,111,61.9,111.2,61.9,112z"/>
	<path id="XMLID_14_" class="st6" d="M67.9,113.8l-0.3-0.1c0.2-0.4,0.3-0.5,0.6-0.9c0.2-0.2,0.4-0.4,0.7-0.8
		c0.6-0.7,0.6-1.1,0.6-1.9c0-0.3,0-0.5,0-0.9c0-1.6,1.8-3.1,1.9-3.1l0.2,0.3c0,0-1.8,1.5-1.8,2.9c0,0.3,0,0.6,0,0.9
		c0,0.8,0.1,1.3-0.6,2.2c-0.3,0.4-0.6,0.6-0.7,0.8C68.1,113.4,68,113.5,67.9,113.8z"/>
	<path id="XMLID_13_" class="st6" d="M71,112.9l-0.3,0c0-0.1,0-0.2,0.1-0.3c0.1-0.3,0.1-0.4-0.6-1.3c-1-1.2-0.7-2.3-0.7-2.4l0.3,0.1
		c0,0-0.2,1.1,0.6,2.1c0.7,0.9,0.8,1.1,0.6,1.5C71,112.7,71,112.8,71,112.9z"/>
	<path id="XMLID_12_" class="st6" d="M66.5,113.8c0-0.6,0.2-1,0.5-1.4c0.1-0.2,0.2-0.4,0.3-0.6c0.2-0.4,0.5-0.6,0.8-0.8
		c0.3-0.2,0.5-0.3,0.7-0.7c0.3-0.8,0.9-2,0.9-2l0.3,0.1c0,0-0.6,1.2-0.9,2c-0.2,0.5-0.5,0.7-0.8,0.8c-0.3,0.2-0.5,0.3-0.7,0.7
		c-0.1,0.2-0.2,0.4-0.3,0.6c-0.2,0.4-0.4,0.8-0.4,1.3L66.5,113.8z"/>
	<path id="XMLID_11_" class="st6" d="M60.5,109.8c0,0,0.6,1.3,0.4,2c-0.3,0.8-0.6,1.5-0.3,2.3"/>
</g>
<path id="XMLID_6_" class="st6" d="M77,151.6c-2.4-7.1-7.2-8-7.2-8c-1-0.5-1.1-0.5-2.2,0.2c-1.2,0.7-0.8,2.7-0.8,3.4
	c0,0.2,0,0.6,0,1.1c-0.8-0.2-1.4-0.8-1.8-1.3c0-2.6,0.3-7.1,0.3-7.1h-1.7c0,0,0.3,4.2,0.2,6.9c-0.4,0.5-1,0.9-1.6,1.2
	c0-0.4,0-0.6,0-0.8c0.1-0.6,0.4-2.7-0.8-3.4c-1.2-0.7-1.3-0.6-2.2-0.2c0,0-4.8,0.9-7.2,8c-2.4,7.1-2.1,11.3,0.3,12.7
	c2.4,1.4,7.1,0.8,8.8-0.2c1.8-1.1,1.2-3.2,1.2-4c-0.1-0.8,0.2-2.9,0.3-3.5c0.1-0.4,0.1-2.6,0-4.2c0.8-1,1.7-0.9,1.7-0.9
	c1,0,1.7,0.7,2.1,1.2c0,1.6,0,3.5,0.1,4c0.2,0.7,0.4,2.7,0.3,3.5c-0.1,0.8-0.6,3,1.2,4c1.8,1.1,6.4,1.6,8.8,0.2
	C79.1,162.9,79.4,158.6,77,151.6z"/>
<g id="XMLID_1_">
	<g id="XMLID_25_">
		<path id="XMLID_29_" class="st6" d="M59.9,214.5c0.3,0.4,0.7,0.6,1,0.5c0.3-0.1,0.6-0.5,0.7-1.2C61,214.1,60.4,214.3,59.9,214.5z"
			/>
		<path id="XMLID_28_" class="st6" d="M75.9,203.6c0.2-0.3,0.3-0.5,0.5-0.8c0.9-1.6,1.8-3.2,1.5-4.1c-0.4-1-2.5-1.6-6.3-1.6
			c0,0-0.1,0-0.1,0c-1,1.3-1.3,4.1-1.4,5.6c0.2,1.7,0,3.5-0.5,5.4C70.8,207.7,74.1,206.9,75.9,203.6z"/>
		<path id="XMLID_27_" class="st6" d="M68,197.2c-0.1,0-0.1,0-0.2,0c0.8,1.1,1.3,2.2,1.7,3.3c0.2-1.3,0.6-2.4,1-3.4
			C69.8,197.1,68.9,197.2,68,197.2z"/>
		<path id="XMLID_26_" class="st6" d="M68.6,208.2c0.6-1.8,0.8-3.5,0.7-5.2c0-0.1,0-0.2,0-0.2c0,0,0,0,0-0.1
			c-0.3-1.9-1.1-3.7-2.4-5.5c-0.1,0-0.1,0-0.2,0c-0.9,0-1.9,0-2.8-0.1c-0.9,0-1.8-0.1-2.7-0.1c-2.7,0-5.4,0.4-6.6,3
			c-1.8,3.7-1.4,7.5-1.1,10.8c0.1,0.7,0.1,1.4,0.2,2.1c0.2,2.4,0.5,4,1.3,4c0.7,0,1.7-0.9,3.1-2.5c0,0,0.1-0.1,0.1-0.1
			C58.3,214.2,66.7,210.9,68.6,208.2z"/>
	</g>
</g>
<g id="XMLID_30_">
	<g id="XMLID_31_">
		<g id="XMLID_32_">
			<path id="XMLID_40_" class="st7" d="M61,252.3c-0.4,0.4-0.9,0.7-1.3,0.9c0.4,0.2,0.8,0.4,1.3,0.8c1-0.5,2-0.8,2.6-1
				c-0.1-0.4-0.2-0.8-0.3-1C62.5,252.1,61.7,252.3,61,252.3z"/>
			<path id="XMLID_38_" class="st7" d="M60.2,262.5c-0.5,1.5-2.1,2.6-4.1,2.6h0c-2.8,0-5.3-1.9-6.7-5c-2.4-5.5,0.4-10.6,0.8-11.3
				c0.2-0.2,0.7-0.6,2-0.3c0.2,0.1,0.5-0.1,0.5-0.4c0.1-0.3-0.1-0.5-0.3-0.6c-0.7-0.2-1.2-0.2-1.6-0.1c1.3-2.9,4-4.2,6.4-4.2
				c2.2,0,4,1.1,4.5,2.8c0.4,1.6,0.3,3-0.3,4.2c-0.8,1.4-2.3,2-2.7,2.2c-0.6-0.2-1.9-0.9-2.3-1.9c-0.1-0.2-0.4-0.3-0.6-0.2
				c-0.2,0.1-0.3,0.4-0.2,0.6c0.5,1.3,1.8,2,2.6,2.3c-0.2,0.7,0,1.4,0.2,1.9c0,0-0.5,1.8-2.3,2.6c-0.2,0.1-0.3,0.4-0.2,0.6
				c0.1,0.2,0.2,0.3,0.4,0.3c0.1,0,0.1,0,0.2,0c1.4-0.6,2.1-1.8,2.5-2.5C59.4,256.9,61.2,259.5,60.2,262.5z"/>
			<path id="XMLID_37_" class="st7" d="M60.2,254.6c-0.5-0.3-0.9-0.6-1.3-0.7c-0.1,0.7,0.3,1.4,0.4,1.5c0.1,0.1,0.5,0.6,0.8,1.2
				c0.9,1,1.5,2.4,1.8,3.4h1.4C62.9,257,61.9,255.7,60.2,254.6z"/>
			<path id="XMLID_36_" class="st7" d="M56.3,258.7c-0.1,0-0.1,0-0.2,0c-0.2,0-0.3-0.1-0.4-0.3c-0.1-0.2,0-0.5,0.2-0.6
				c1.7-0.8,2.2-2.5,2.3-2.6c-0.2-0.5-0.4-1.2-0.2-1.9c-0.7-0.3-2.1-1-2.6-2.3c-0.1-0.2,0-0.5,0.2-0.6c0.2-0.1,0.5,0,0.6,0.2
				c0.4,1,1.7,1.7,2.3,1.9c0.4-0.1,1.9-0.7,2.7-2.2c0.6-1.1,0.7-2.5,0.3-4.2c-0.5-1.7-2.2-2.8-4.5-2.8c-2.4,0-5.1,1.3-6.4,4.2
				c0.4-0.1,1-0.1,1.6,0.1c0.2,0.1,0.4,0.3,0.3,0.6c-0.1,0.3-0.3,0.4-0.5,0.4c-1.2-0.3-1.7,0-2,0.3c-0.4,0.7-3.2,5.8-0.8,11.3
				c1.4,3.1,3.8,5,6.7,5h0c2,0,3.6-1.1,4.1-2.6c0.9-3-0.9-5.6-1.5-6.3C58.4,256.9,57.7,258.1,56.3,258.7z"/>
			<path id="XMLID_35_" class="st7" d="M69.7,253.2c-0.4-0.2-0.8-0.5-1.3-0.9c-0.8-0.1-1.5-0.2-2.3-0.4c-0.1,0.3-0.2,0.6-0.3,1
				c0.6,0.2,1.6,0.5,2.6,1C68.8,253.6,69.2,253.3,69.7,253.2z"/>
			<path id="XMLID_34_" class="st7" d="M70,255.4c0.1-0.1,0.5-0.7,0.4-1.5c-1.5,0.6-3.8,1.1-4.4,6.1h1.4c0.3-1,0.8-2.4,1.7-3.3
				C69.6,256,69.9,255.5,70,255.4z"/>
			<path id="XMLID_33_" class="st7" d="M79,248.8c-0.2-0.2-0.7-0.6-2-0.3c-0.2,0.1-0.5-0.1-0.5-0.4c-0.1-0.3,0.1-0.5,0.3-0.6
				c0.7-0.2,1.2-0.2,1.6-0.1c-1.3-2.9-4-4.2-6.4-4.2c-2.2,0-4,1.1-4.5,2.8c-0.4,1.6-0.3,3,0.3,4.2c0.8,1.4,2.3,2,2.7,2.2
				c0.4-0.2,1.9-0.8,2.3-1.9c0.1-0.2,0.4-0.3,0.6-0.2c0.2,0.1,0.3,0.4,0.2,0.6c-0.5,1.3-1.8,2-2.6,2.3c0.2,0.7,0,1.4-0.2,1.9
				c0,0,0,0,0,0c0,0,0.5,1.8,2.3,2.6c0.2,0.1,0.3,0.4,0.2,0.6c-0.1,0.2-0.2,0.3-0.4,0.3c-0.1,0-0.1,0-0.2,0
				c-1.4-0.7-2.1-1.8-2.5-2.5c-0.6,0.7-2.4,3.3-1.5,6.2c0.5,1.5,2.1,2.5,4.1,2.5c2.8,0,5.3-1.8,6.7-4.9
				C82.2,254.5,79.4,249.5,79,248.8z"/>
		</g>
	</g>
</g>
</svg>
